<svg xmlns="http://www.w3.org/2000/svg" viewBox="0 0 173.22 32.87"><defs><style>.cls-1{fill:#ee7576;}</style></defs><g id="Calque_2" data-name="Calque 2"><g id="Calque_1-2" data-name="Calque 1"><path class="cls-1" d="M16,20.47l-3,6L0,.44H6ZM52.11.44l-16,32L26,12.39l3-6,7.07,14.07,10-20Z"/><path d="M49.88,10.4h2.68v3H49.88Zm0,5.91h2.68V31.92H49.88Z"/><path d="M56.62,10.4h2.64V31.92H56.62Z"/><path d="M71.83,16.72a6.86,6.86,0,0,1,1.59,1.53V10.33H76V31.92H73.58V29.74a5.6,5.6,0,0,1-2.17,2.09,6.23,6.23,0,0,1-2.88.65A5.82,5.82,0,0,1,64,30.27a8.65,8.65,0,0,1-1.91-5.86,10.15,10.15,0,0,1,1.74-5.94,5.72,5.72,0,0,1,5-2.52A5.53,5.53,0,0,1,71.83,16.72ZM66,28.48a3.72,3.72,0,0,0,3.41,1.7,3.59,3.59,0,0,0,3-1.58,7.47,7.47,0,0,0,1.18-4.52,6.74,6.74,0,0,0-1.21-4.4,3.79,3.79,0,0,0-3-1.43,4,4,0,0,0-3.22,1.53,7,7,0,0,0-1.23,4.48A7.8,7.8,0,0,0,66,28.48Z"/><path class="cls-1" d="M90.28,18.68A9,9,0,0,1,83.68,16,9.15,9.15,0,0,1,81,9.32a9,9,0,0,1,2.72-6.56A8.88,8.88,0,0,1,90.28,0V5.36a4,4,0,0,0-1.56.28,3.64,3.64,0,0,0-1.32.88,3.89,3.89,0,0,0-1.12,2.8,3.92,3.92,0,0,0,1.12,2.84,3.86,3.86,0,0,0,2.88,1.2h8a9.34,9.34,0,0,1,9.35,9.32A9.34,9.34,0,0,1,98.24,32V26.63a4.2,4.2,0,0,0,1.56-.27,3.73,3.73,0,0,0,1.32-.84,3.66,3.66,0,0,0,.84-1.28,4,4,0,0,0,.32-1.56,4,4,0,0,0-1.2-2.8,3.84,3.84,0,0,0-2.84-1.2Z"/><path d="M120.74,17a5.88,5.88,0,0,1,2.37,2,6.84,6.84,0,0,1,1,2.77,17.66,17.66,0,0,1,.24,3.46H113a6.88,6.88,0,0,0,1.12,3.84,3.74,3.74,0,0,0,3.24,1.44,4.16,4.16,0,0,0,3.27-1.36,4.66,4.66,0,0,0,1-1.84h2.6a5.47,5.47,0,0,1-.69,1.92A6.68,6.68,0,0,1,122.2,31a6.05,6.05,0,0,1-3,1.58,8.72,8.72,0,0,1-2.14.23,6.54,6.54,0,0,1-4.93-2.13,8.32,8.32,0,0,1-2-6,9,9,0,0,1,2-6.13,6.66,6.66,0,0,1,5.32-2.36A7.11,7.11,0,0,1,120.74,17Zm1,6.16a6.93,6.93,0,0,0-.75-2.74,3.77,3.77,0,0,0-3.58-1.9,4,4,0,0,0-3,1.31,4.94,4.94,0,0,0-1.3,3.33Z"/><path d="M127.81,16.58h2.5v2.71a6.09,6.09,0,0,1,1.51-1.93,4,4,0,0,1,2.77-1.13h.25l.6.06v2.78L135,19l-.43,0a3.8,3.8,0,0,0-3.07,1.28,4.49,4.49,0,0,0-1.06,2.95v9h-2.64Z"/><path d="M137.73,10.75h2.68v3h-2.68Zm0,5.9h2.68V32.27h-2.68Z"/><path d="M154.08,17a5.88,5.88,0,0,1,2.37,2,6.84,6.84,0,0,1,1.05,2.77,17.66,17.66,0,0,1,.24,3.46H146.32a6.8,6.8,0,0,0,1.12,3.84,3.74,3.74,0,0,0,3.24,1.44A4.16,4.16,0,0,0,154,29.19a4.66,4.66,0,0,0,1-1.84h2.6a5.47,5.47,0,0,1-.69,1.92A6.68,6.68,0,0,1,155.54,31a6.05,6.05,0,0,1-2.95,1.58,8.72,8.72,0,0,1-2.14.23,6.54,6.54,0,0,1-4.93-2.13,8.32,8.32,0,0,1-2-6,9.07,9.07,0,0,1,2-6.13,6.69,6.69,0,0,1,5.33-2.36A7.11,7.11,0,0,1,154.08,17Zm.95,6.16a6.93,6.93,0,0,0-.75-2.74,3.77,3.77,0,0,0-3.58-1.9,4,4,0,0,0-3,1.31,4.94,4.94,0,0,0-1.3,3.33Z"/><path d="M162.64,27.35a3.77,3.77,0,0,0,.68,2,4.25,4.25,0,0,0,3.52,1.27,5.2,5.2,0,0,0,2.63-.64,2.1,2.1,0,0,0,1.14-2,1.66,1.66,0,0,0-.91-1.53,10.25,10.25,0,0,0-2.29-.75l-2.13-.53a10.52,10.52,0,0,1-3-1.11,3.31,3.31,0,0,1-1.72-3,4.49,4.49,0,0,1,1.62-3.6,6.54,6.54,0,0,1,4.37-1.38q3.6,0,5.19,2.08a4.49,4.49,0,0,1,1,2.84H170.2a3,3,0,0,0-.64-1.62,4.2,4.2,0,0,0-3.23-1A3.9,3.9,0,0,0,164,19a1.76,1.76,0,0,0-.79,1.5,1.85,1.85,0,0,0,1,1.64,6.66,6.66,0,0,0,1.76.64l1.78.43a13.66,13.66,0,0,1,3.88,1.33,3.51,3.51,0,0,1,1.54,3.18,4.85,4.85,0,0,1-1.61,3.62,6.93,6.93,0,0,1-4.9,1.52q-3.56,0-5-1.59a5.94,5.94,0,0,1-1.58-3.93Z"/></g></g></svg>